<svg width="78" height="78" viewBox="0 0 78 78" fill="none" xmlns="http://www.w3.org/2000/svg">
<rect width="78" height="78" rx="5" fill="#6415FF"/>
<path d="M22.896 26.8C25.128 26.8 27.06 27.172 28.692 27.916C30.348 28.66 31.62 29.716 32.508 31.084C33.396 32.452 33.84 34.072 33.84 35.944C33.84 37.792 33.396 39.412 32.508 40.804C31.62 42.172 30.348 43.228 28.692 43.972C27.06 44.692 25.128 45.052 22.896 45.052H17.82V52H11.988V26.8H22.896ZM22.572 40.3C24.324 40.3 25.656 39.928 26.568 39.184C27.48 38.416 27.936 37.336 27.936 35.944C27.936 34.528 27.48 33.448 26.568 32.704C25.656 31.936 24.324 31.552 22.572 31.552H17.82V40.3H22.572Z" fill="white"/>
<path d="M38.156 52.36C35.588 52.36 33.272 51.808 31.208 50.704C29.144 49.576 27.524 48.028 26.348 46.06C25.172 44.068 24.584 41.848 24.584 39.4C24.584 36.952 25.172 34.744 26.348 32.776C27.524 30.784 29.144 29.236 31.208 28.132C33.272 27.004 35.588 26.44 38.156 26.44C40.724 26.44 43.04 27.004 45.104 28.132C47.168 29.236 48.788 30.772 49.964 32.74C51.14 34.708 51.728 36.928 51.728 39.4C51.728 41.872 51.14 44.092 49.964 46.06C48.788 48.028 47.168 49.576 45.104 50.704C43.04 51.808 40.724 52.36 38.156 52.36ZM38.156 48.256C39.836 48.256 41.348 47.884 42.692 47.14C44.036 46.372 45.092 45.316 45.86 43.972C46.628 42.604 47.012 41.08 47.012 39.4C47.012 37.72 46.628 36.208 45.86 34.864C45.092 33.496 44.036 32.44 42.692 31.696C41.348 30.928 39.836 30.544 38.156 30.544C36.476 30.544 34.964 30.928 33.62 31.696C32.276 32.44 31.22 33.496 30.452 34.864C29.684 36.208 29.3 37.72 29.3 39.4C29.3 41.08 29.684 42.604 30.452 43.972C31.22 45.316 32.276 46.372 33.62 47.14C34.964 47.884 36.476 48.256 38.156 48.256Z" fill="white" fill-opacity="0.46"/>
<path d="M63.016 39.004H68.344V49.228C66.976 50.26 65.392 51.052 63.592 51.604C61.792 52.156 59.98 52.432 58.156 52.432C55.54 52.432 53.188 51.88 51.1 50.776C49.012 49.648 47.368 48.1 46.168 46.132C44.992 44.14 44.404 41.896 44.404 39.4C44.404 36.904 44.992 34.672 46.168 32.704C47.368 30.712 49.024 29.164 51.136 28.06C53.248 26.932 55.624 26.368 58.264 26.368C60.472 26.368 62.476 26.74 64.276 27.484C66.076 28.228 67.588 29.308 68.812 30.724L65.068 34.18C63.268 32.284 61.096 31.336 58.552 31.336C56.944 31.336 55.516 31.672 54.268 32.344C53.02 33.016 52.048 33.964 51.352 35.188C50.656 36.412 50.308 37.816 50.308 39.4C50.308 40.96 50.656 42.352 51.352 43.576C52.048 44.8 53.008 45.76 54.232 46.456C55.48 47.128 56.896 47.464 58.48 47.464C60.16 47.464 61.672 47.104 63.016 46.384V39.004Z" fill="white"/>
</svg>
